<?xml version="1.0" encoding="UTF-8"?>
<svg width="160px" height="21px" viewBox="0 0 160 21" version="1.1" xmlns="http://www.w3.org/2000/svg" xmlns:xlink="http://www.w3.org/1999/xlink">
    <!-- Generator: sketchtool 52.3 (67297) - http://www.bohemiancoding.com/sketch -->
    <title>DE5C65D1-D325-4E5B-83DC-F1C916928303</title>
    <desc>Created with sketchtool.</desc>
    <g xmlns="http://www.w3.org/2000/svg" id="Top-Menu" stroke="none" stroke-width="1" fill="none" fill-rule="evenodd">
        <g id="Nav_A1" transform="translate(-560.000000, -32.000000)" fill="#0B3B3C">
            <g id="header">
                <g id="nav-bar-transparent" transform="translate(40.000000, 29.000000)">
                    <g id="manual-logo-white-copy" transform="translate(520.000000, 3.000000)">
                        <path d="M40.3109226,0.229249284 L43.0430716,0.229249284 L53.7440458,20.4332607 L50.5720115,20.4332607 L47.6120115,14.7771003 L35.7121834,14.7771003 L32.7817536,20.4332607 L29.6097192,20.4332607 L40.3109226,0.229249284 Z M41.6321834,3.35062464 L37.0435301,12.2074728 L46.2673696,12.2074728 L41.6321834,3.35062464 Z M123.44988,0.229249284 L126.182258,0.229249284 L136.883232,20.4332607 L133.711198,20.4332607 L130.751198,14.7771003 L118.85137,14.7771003 L115.92094,20.4332607 L112.748905,20.4332607 L123.44988,0.229249284 Z M124.77114,3.35062464 L120.182716,12.2074728 L129.406556,12.2074728 L124.77114,3.35062464 Z M142.515026,0.229249284 L145.459209,0.229249284 L145.459209,17.786384 L159.850728,17.786384 L159.850728,20.4332607 L142.515026,20.4332607 L142.515026,0.229249284 Z M77.4167106,0.229249284 L80.222212,0.229249284 L80.222212,20.4332607 L78.9763668,20.4332607 L77.5207794,20.4332607 L62.1814097,4.18225788 L62.1814097,20.4332607 L59.3759083,20.4332607 L59.3759083,0.229249284 L62.0269112,0.229249284 L77.4167106,16.5387049 L77.4167106,0.229249284 Z M105.845937,11.5679312 L105.845937,0.229249284 L108.79012,0.229249284 L108.79012,11.5340057 C108.79012,18.0412837 104.512756,20.9478739 98.4460516,20.9478739 C92.3793467,20.9478739 88.1017536,18.0412837 88.1017536,11.5340057 L88.1017536,0.229249284 L91.045937,0.229249284 L91.045937,11.5679312 C91.045937,16.2455244 94.2090315,18.3046648 98.4460516,18.3046648 C102.682842,18.3046648 105.845937,16.2455244 105.845937,11.5679312 Z M11.9889513,10.4946246 L21.3269456,0.229180516 L23.9779484,0.229180516 L23.9779484,20.433192 L21.172447,20.433192 L21.172447,4.18241834 L11.9889513,14.238808 L2.80545559,4.18241834 L2.80545559,20.433192 L-4.58452722e-05,20.433192 L-4.58452722e-05,0.229180516 L2.65095702,0.229180516 L11.9889513,10.4946246 Z" id="manual-wordmark-green"/>
                    </g>
                </g>
            </g>
        </g>
    </g>
</svg>
